<svg width="48" height="49" viewBox="0 0 48 49" fill="none" xmlns="http://www.w3.org/2000/svg">
<path d="M25.5 6.5V12.5C25.5 12.8978 25.342 13.2794 25.0607 13.5607C24.7794 13.842 24.3978 14 24 14C23.6022 14 23.2206 13.842 22.9393 13.5607C22.658 13.2794 22.5 12.8978 22.5 12.5V6.5C22.5 6.10218 22.658 5.72064 22.9393 5.43934C23.2206 5.15804 23.6022 5 24 5C24.3978 5 24.7794 5.15804 25.0607 5.43934C25.342 5.72064 25.5 6.10218 25.5 6.5ZM32.4844 17.5156C32.6815 17.5155 32.8768 17.4766 33.0589 17.401C33.241 17.3254 33.4064 17.2146 33.5456 17.075L37.7887 12.8337C38.0702 12.5523 38.2283 12.1705 38.2283 11.7725C38.2283 11.3745 38.0702 10.9927 37.7887 10.7112C37.5073 10.4298 37.1255 10.2717 36.7275 10.2717C36.3295 10.2717 35.9477 10.4298 35.6663 10.7112L31.425 14.9544C31.2151 15.164 31.0721 15.4313 31.014 15.7222C30.956 16.0132 30.9856 16.3148 31.099 16.5889C31.2124 16.8631 31.4045 17.0975 31.6511 17.2624C31.8977 17.4274 32.1877 17.5155 32.4844 17.5156ZM42 23H36C35.6022 23 35.2206 23.158 34.9393 23.4393C34.658 23.7206 34.5 24.1022 34.5 24.5C34.5 24.8978 34.658 25.2794 34.9393 25.5607C35.2206 25.842 35.6022 26 36 26H42C42.3978 26 42.7794 25.842 43.0607 25.5607C43.342 25.2794 43.5 24.8978 43.5 24.5C43.5 24.1022 43.342 23.7206 43.0607 23.4393C42.7794 23.158 42.3978 23 42 23ZM33.5456 31.925C33.262 31.6556 32.8844 31.5076 32.4933 31.5126C32.1021 31.5176 31.7284 31.6752 31.4518 31.9518C31.1752 32.2284 31.0176 32.6021 31.0126 32.9933C31.0076 33.3844 31.1556 33.762 31.425 34.0456L35.6663 38.2887C35.9477 38.5702 36.3295 38.7283 36.7275 38.7283C37.1255 38.7283 37.5073 38.5702 37.7887 38.2887C38.0702 38.0073 38.2283 37.6255 38.2283 37.2275C38.2283 36.8295 38.0702 36.4477 37.7887 36.1663L33.5456 31.925ZM24 35C23.6022 35 23.2206 35.158 22.9393 35.4393C22.658 35.7206 22.5 36.1022 22.5 36.5V42.5C22.5 42.8978 22.658 43.2794 22.9393 43.5607C23.2206 43.842 23.6022 44 24 44C24.3978 44 24.7794 43.842 25.0607 43.5607C25.342 43.2794 25.5 42.8978 25.5 42.5V36.5C25.5 36.1022 25.342 35.7206 25.0607 35.4393C24.7794 35.158 24.3978 35 24 35ZM14.4544 31.925L10.2112 36.1663C9.92979 36.4477 9.77167 36.8295 9.77167 37.2275C9.77167 37.6255 9.92979 38.0073 10.2112 38.2887C10.4927 38.5702 10.8745 38.7283 11.2725 38.7283C11.6705 38.7283 12.0523 38.5702 12.3337 38.2887L16.575 34.0456C16.8444 33.762 16.9924 33.3844 16.9874 32.9933C16.9824 32.6021 16.8248 32.2284 16.5482 31.9518C16.2716 31.6752 15.8979 31.5176 15.5067 31.5126C15.1156 31.5076 14.738 31.6556 14.4544 31.925ZM13.5 24.5C13.5 24.1022 13.342 23.7206 13.0607 23.4393C12.7794 23.158 12.3978 23 12 23H6C5.60218 23 5.22064 23.158 4.93934 23.4393C4.65804 23.7206 4.5 24.1022 4.5 24.5C4.5 24.8978 4.65804 25.2794 4.93934 25.5607C5.22064 25.842 5.60218 26 6 26H12C12.3978 26 12.7794 25.842 13.0607 25.5607C13.342 25.2794 13.5 24.8978 13.5 24.5ZM12.3337 10.7112C12.0523 10.4298 11.6705 10.2717 11.2725 10.2717C10.8745 10.2717 10.4927 10.4298 10.2112 10.7112C9.92979 10.9927 9.77167 11.3745 9.77167 11.7725C9.77167 12.1705 9.92979 12.5523 10.2112 12.8337L14.4544 17.075C14.738 17.3444 15.1156 17.4924 15.5067 17.4874C15.8979 17.4824 16.2716 17.3248 16.5482 17.0482C16.8248 16.7716 16.9824 16.3979 16.9874 16.0067C16.9924 15.6156 16.8444 15.238 16.575 14.9544L12.3337 10.7112Z" fill="#5C5C5C"/>
</svg>
